<?xml version="1.0" standalone="no"?>
<!DOCTYPE svg PUBLIC "-//W3C//DTD SVG 20010904//EN"
 "http://www.w3.org/TR/2001/REC-SVG-20010904/DTD/svg10.dtd">
<svg version="1.0" xmlns="http://www.w3.org/2000/svg"
 width="260.000000pt" height="260.000000pt" viewBox="0 0 260.000000 260.000000"
 preserveAspectRatio="xMidYMid meet">
<metadata>
Created by potrace 1.11, written by Peter Selinger 2001-2013
</metadata>
<g transform="translate(0.000000,260.000000) scale(0.100000,-0.100000)"
fill="#000000" stroke="none">
<path d="M516 2293 c-3 -16 -28 -138 -57 -273 -28 -135 -53 -256 -55 -269 -3
-12 -11 -51 -19 -85 -8 -33 -17 -77 -20 -96 -3 -19 -12 -63 -20 -98 -8 -34
-17 -77 -20 -95 -6 -31 -9 -46 -21 -87 -5 -19 -1 -20 75 -20 88 0 88 0 71 -60
-5 -19 -11 -47 -14 -62 l-5 -28 85 0 c93 0 93 0 75 -70 -5 -19 -12 -47 -15
-62 l-6 -28 94 0 94 0 -14 -63 c-8 -34 -16 -72 -19 -85 -5 -21 -3 -22 71 -22
l77 0 -6 -33 c-12 -63 -18 -92 -23 -109 -5 -16 3 -18 75 -18 88 0 87 0 72 -60
-5 -19 -12 -47 -15 -63 l-6 -27 69 0 69 0 -9 -42 c-6 -24 -12 -51 -15 -60 -5
-17 6 -18 140 -18 80 0 147 4 150 8 3 5 7 20 10 35 24 131 91 427 97 427 4 0
11 -9 14 -20 3 -11 13 -20 20 -20 8 0 21 -10 28 -22 8 -13 29 -49 47 -80 24
-41 40 -58 55 -58 15 0 33 -20 65 -75 32 -54 50 -75 65 -75 14 0 30 -18 55
-60 l34 -61 125 3 126 3 22 105 c12 58 32 150 44 205 12 55 23 114 26 130 2
17 9 47 14 67 10 40 67 304 75 353 3 17 12 57 20 90 22 97 24 95 -52 95 -57 0
-65 2 -60 18 2 9 8 36 11 60 l7 42 -81 0 c-60 0 -79 3 -76 13 4 12 9 35 22
105 l6 32 -77 0 c-69 0 -77 2 -72 18 10 34 26 107 26 125 0 15 -11 17 -90 17
l-90 0 5 28 c3 15 11 53 19 85 l13 57 -87 0 -87 0 8 43 c5 23 11 59 15 80 l7
37 -81 0 -80 0 14 58 c23 99 34 92 -131 92 l-144 0 -7 -37 c-3 -21 -12 -63
-19 -93 -8 -30 -16 -66 -18 -80 -16 -88 -53 -250 -57 -250 -3 0 -25 34 -49 75
-35 60 -48 75 -67 75 -23 0 -46 31 -102 136 -8 14 -22 24 -35 24 -17 0 -32 18
-65 75 l-44 75 -138 0 -138 0 -6 -27z"/>
</g>
</svg>
